<svg width="80" height="80" viewBox="0 0 80 80" fill="none" xmlns="http://www.w3.org/2000/svg">
<path fill-rule="evenodd" clip-rule="evenodd" d="M56.1906 49.981C54.5029 45.0171 50.9029 39.3653 45.7689 34.2314C40.6349 29.0974 34.9831 25.4974 30.0192 23.8096C25.0125 22.1074 20.9158 22.4075 18.6247 24.6987C16.3336 26.9898 16.0334 31.0865 17.7357 36.0932C19.4234 41.0571 23.0234 46.7089 28.1574 51.8428C33.2914 56.9768 38.9432 60.5768 43.9071 62.2646C48.9138 63.9668 53.0105 63.6667 55.3016 61.3755C57.5927 59.0844 57.8929 54.9878 56.1906 49.981ZM55.7482 61.8221C60.8581 56.7122 56.5902 44.1595 46.2155 33.7848C35.8408 23.4101 23.288 19.1421 18.1781 24.2521C13.0682 29.362 17.3361 41.9147 27.7108 52.2894C38.0855 62.6641 50.6383 66.9321 55.7482 61.8221Z" fill="#00AFF4"/>
<path fill-rule="evenodd" clip-rule="evenodd" d="M52.2648 53.9068C50.5771 48.9429 46.9771 43.2911 41.8431 38.1571C36.7091 33.0232 31.0573 29.4232 26.0934 27.7354C21.0867 26.0332 16.9901 26.3333 14.6989 28.6244C12.4078 30.9156 12.1076 35.0122 13.8099 40.0189C15.4977 44.9829 19.0977 50.6347 24.2316 55.7686C29.3656 60.9026 35.0174 64.5026 39.9813 66.1903C44.988 67.8926 49.0847 67.5925 51.3758 65.3013C53.667 63.0102 53.9671 58.9135 52.2648 53.9068ZM51.8224 65.7479C56.9323 60.638 52.6644 48.0852 42.2897 37.7105C31.915 27.3359 19.3623 23.0679 14.2523 28.1778C9.14241 33.2878 13.4103 45.8405 23.785 56.2152C34.1597 66.5899 46.7125 70.8578 51.8224 65.7479Z" fill="#00AFF4"/>
<path fill-rule="evenodd" clip-rule="evenodd" d="M54.895 50.4215C53.2882 45.6956 49.8196 40.2173 44.8013 35.199C39.783 30.1807 34.3046 26.712 29.5787 25.1052C24.7173 23.4524 21.3118 23.9468 19.5923 25.6663C17.8728 27.3858 17.3784 30.7913 19.0313 35.6527C20.6381 40.3786 24.1067 45.8569 29.125 50.8752C34.1434 55.8935 39.6217 59.3622 44.3476 60.969C49.209 62.6218 52.6145 62.1274 54.334 60.4079C56.0535 58.6884 56.5479 55.2829 54.895 50.4215ZM55.7482 61.8221C60.8581 56.7122 56.5902 44.1595 46.2155 33.7848C35.8408 23.4101 23.288 19.1421 18.1781 24.2521C13.0682 29.362 17.3361 41.9147 27.7108 52.2894C38.0855 62.6641 50.6383 66.9321 55.7482 61.8221Z" fill="#00AFF4"/>
<path fill-rule="evenodd" clip-rule="evenodd" d="M50.9692 54.3473C49.3624 49.6214 45.8938 44.1431 40.8755 39.1248C35.8572 34.1064 30.3789 30.6378 25.6529 29.031C20.7915 27.3781 17.3861 27.8725 15.6665 29.5921C13.947 31.3116 13.4526 34.717 15.1055 39.5784C16.7123 44.3044 20.1809 49.7827 25.1993 54.801C30.2176 59.8193 35.6959 63.2879 40.4218 64.8948C45.2832 66.5476 48.6887 66.0532 50.4082 64.3337C52.1277 62.6142 52.6221 59.2087 50.9692 54.3473ZM51.8224 65.7479C56.9323 60.638 52.6644 48.0852 42.2897 37.7105C31.915 27.3359 19.3623 23.0679 14.2523 28.1778C9.14241 33.2878 13.4103 45.8405 23.785 56.2152C34.1597 66.5899 46.7125 70.8578 51.8224 65.7479Z" fill="#00AFF4"/>
<path fill-rule="evenodd" clip-rule="evenodd" d="M66.1906 39.981C64.5029 35.0171 60.9029 29.3653 55.7689 24.2314C50.6349 19.0974 44.9831 15.4974 40.0192 13.8096C35.0125 12.1074 30.9158 12.4075 28.6247 14.6987C26.3336 16.9898 26.0334 21.0865 27.7357 26.0932C29.4234 31.0571 33.0234 36.7089 38.1574 41.8428C43.2914 46.9768 48.9432 50.5768 53.9071 52.2646C58.9138 53.9668 63.0105 53.6667 65.3016 51.3755C67.5927 49.0844 67.8929 44.9878 66.1906 39.981ZM65.7482 51.8221C70.8581 46.7122 66.5902 34.1595 56.2155 23.7848C45.8408 13.4101 33.288 9.14214 28.1781 14.2521C23.0682 19.362 27.3361 31.9147 37.7108 42.2894C48.0855 52.6641 60.6383 56.9321 65.7482 51.8221Z" fill="#00AFF4"/>
<path fill-rule="evenodd" clip-rule="evenodd" d="M62.2648 43.9068C60.5771 38.9429 56.9771 33.2911 51.8431 28.1571C46.7091 23.0232 41.0573 19.4232 36.0934 17.7354C31.0867 16.0332 26.9901 16.3333 24.6989 18.6244C22.4078 20.9156 22.1076 25.0122 23.8099 30.0189C25.4977 34.9829 29.0977 40.6347 34.2316 45.7686C39.3656 50.9026 45.0174 54.5026 49.9813 56.1903C54.988 57.8926 59.0847 57.5925 61.3758 55.3013C63.667 53.0102 63.9671 48.9135 62.2648 43.9068ZM61.8224 55.7479C66.9323 50.638 62.6644 38.0852 52.2897 27.7105C41.915 17.3359 29.3623 13.0679 24.2523 18.1778C19.1424 23.2878 23.4103 35.8405 33.785 46.2152C44.1597 56.5899 56.7125 60.8578 61.8224 55.7479Z" fill="#00AFF4"/>
<path fill-rule="evenodd" clip-rule="evenodd" d="M64.895 40.4215C63.2882 35.6956 59.8196 30.2173 54.8013 25.199C49.783 20.1807 44.3046 16.712 39.5787 15.1052C34.7173 13.4524 31.3118 13.9468 29.5923 15.6663C27.8728 17.3858 27.3784 20.7913 29.0313 25.6527C30.6381 30.3786 34.1067 35.8569 39.125 40.8752C44.1434 45.8935 49.6217 49.3622 54.3476 50.969C59.209 52.6218 62.6145 52.1274 64.334 50.4079C66.0535 48.6884 66.5479 45.2829 64.895 40.4215ZM65.7482 51.8221C70.8581 46.7122 66.5902 34.1595 56.2155 23.7848C45.8408 13.4101 33.288 9.14214 28.1781 14.2521C23.0682 19.362 27.3361 31.9147 37.7108 42.2894C48.0855 52.6641 60.6383 56.9321 65.7482 51.8221Z" fill="#00AFF4"/>
<path fill-rule="evenodd" clip-rule="evenodd" d="M60.9692 44.3473C59.3624 39.6214 55.8938 34.1431 50.8755 29.1248C45.8572 24.1064 40.3789 20.6378 35.6529 19.031C30.7915 17.3781 27.3861 17.8725 25.6665 19.5921C23.947 21.3116 23.4526 24.717 25.1055 29.5784C26.7123 34.3044 30.1809 39.7827 35.1993 44.801C40.2176 49.8193 45.6959 53.2879 50.4218 54.8948C55.2832 56.5476 58.6887 56.0532 60.4082 54.3337C62.1277 52.6142 62.6221 49.2087 60.9692 44.3473ZM61.8224 55.7479C66.9323 50.638 62.6644 38.0852 52.2897 27.7105C41.915 17.3359 29.3623 13.0679 24.2523 18.1778C19.1424 23.2878 23.4103 35.8405 33.785 46.2152C44.1597 56.5899 56.7125 60.8578 61.8224 55.7479Z" fill="#00AFF4"/>
</svg>
