<svg width="80" height="80" viewBox="0 0 80 80" fill="none" xmlns="http://www.w3.org/2000/svg">
<path fill-rule="evenodd" clip-rule="evenodd" d="M45.7693 60.514V19.4862C45.7693 16.2993 43.1858 13.7158 39.9989 13.7158C36.812 13.7158 34.2285 16.2993 34.2285 19.4862V60.514C34.2285 63.7009 36.812 66.2844 39.9989 66.2844C43.1858 66.2844 45.7693 63.7009 45.7693 60.514ZM39.9989 11.7158C35.7074 11.7158 32.2285 15.1947 32.2285 19.4862V60.514C32.2285 64.8054 35.7074 68.2844 39.9989 68.2844C44.2904 68.2844 47.7693 64.8054 47.7693 60.514V19.4862C47.7693 15.1947 44.2904 11.7158 39.9989 11.7158Z" fill="#00AFF4"/>
<path fill-rule="evenodd" clip-rule="evenodd" d="M60.513 34.2297L19.4852 34.2297C16.2983 34.2297 13.7148 36.8132 13.7148 40.0001C13.7148 43.187 16.2983 45.7705 19.4852 45.7705L60.513 45.7705C63.6999 45.7705 66.2834 43.187 66.2834 40.0001C66.2834 36.8132 63.6999 34.2297 60.513 34.2297ZM11.7148 40.0001C11.7148 44.2916 15.1938 47.7705 19.4852 47.7705L60.513 47.7705C64.8045 47.7705 68.2834 44.2916 68.2834 40.0001C68.2834 35.7086 64.8045 32.2297 60.513 32.2297L19.4852 32.2297C15.1938 32.2297 11.7148 35.7086 11.7148 40.0001Z" fill="#00AFF4"/>
<path fill-rule="evenodd" clip-rule="evenodd" d="M58.5862 50.4253L29.5752 21.4143C27.3217 19.1609 23.6681 19.1609 21.4146 21.4143C19.1611 23.6678 19.1611 27.3214 21.4146 29.5749L50.4256 58.5859C52.6791 60.8394 56.3327 60.8394 58.5862 58.5859C60.8396 56.3324 60.8396 52.6788 58.5862 50.4253ZM20.0004 20.0001C16.9658 23.0347 16.9658 27.9546 20.0004 30.9891L49.0114 60.0001C52.0459 63.0346 56.9658 63.0346 60.0004 60.0001C63.0349 56.9656 63.0349 52.0456 60.0004 49.0111L30.9894 20.0001C27.9548 16.9656 23.0349 16.9656 20.0004 20.0001Z" fill="#00AFF4"/>
<path fill-rule="evenodd" clip-rule="evenodd" d="M50.4248 21.4143L21.4138 50.4253C19.1604 52.6788 19.1604 56.3324 21.4138 58.5859C23.6673 60.8394 27.3209 60.8394 29.5744 58.5859L58.5854 29.5749C60.8389 27.3214 60.8389 23.6678 58.5854 21.4143C56.3319 19.1608 52.6783 19.1608 50.4248 21.4143ZM19.9996 60.0001C23.0342 63.0347 27.9541 63.0347 30.9886 60.0001L59.9996 30.9891C63.0342 27.9546 63.0342 23.0346 59.9996 20.0001C56.9651 16.9656 52.0452 16.9656 49.0106 20.0001L19.9996 49.0111C16.9651 52.0456 16.9651 56.9656 19.9996 60.0001Z" fill="#00AFF4"/>
</svg>
