<svg width="80" height="80" viewBox="0 0 80 80" fill="none" xmlns="http://www.w3.org/2000/svg">
<path fill-rule="evenodd" clip-rule="evenodd" d="M68.1718 50.3125C68.7674 48.6856 69.22 47.0126 69.5259 45.3125H54.0277C53.9735 45.4558 53.9169 45.5984 53.8582 45.7402C53.1568 47.4337 52.1513 48.9831 50.8928 50.3125H68.1718ZM67.1264 52.8125C66.2943 54.5742 65.2935 56.2486 64.1395 57.8125H40V55C41.9698 55 43.9204 54.612 45.7403 53.8582C46.4543 53.5624 47.1428 53.2126 47.8 52.8125H67.1264ZM61.2132 61.2132C61.5077 60.9187 61.7957 60.6184 62.0772 60.3125H40L40 65.3125H56.1021C57.946 64.1395 59.6606 62.7658 61.2132 61.2132ZM51.2457 67.8125C47.6732 69.257 43.8551 70 40 70V67.8125H51.2457ZM54.734 42.8125H69.8679C69.9558 41.8792 70 40.9407 70 40C70 39.269 69.9733 38.5394 69.9201 37.8125H54.8396C54.9462 38.5351 55 39.2662 55 40C55 40.9461 54.9105 41.8877 54.734 42.8125ZM54.2488 35.3125C54.1319 34.9574 54.0017 34.6062 53.8582 34.2597C53.264 32.8253 52.4517 31.4941 51.4522 30.3125H68.3928C68.9489 31.9422 69.363 33.6151 69.6315 35.3125H54.2488ZM48.7444 27.8125H67.4129C66.632 26.0562 65.6856 24.3822 64.5884 22.8125H47.1193L45.7403 26.1418C46.8048 26.5828 47.8125 27.1439 48.7444 27.8125ZM47.1193 22.8125H40V25C41.9698 25 43.9204 25.388 45.7402 26.1418L47.1193 22.8125ZM40 20.3125V15.3125H57.0449C58.5329 16.3398 59.9285 17.5021 61.2132 18.7868C61.7058 19.2794 62.1804 19.7883 62.6363 20.3125H48.1548H40ZM40 12.8125H52.6823C52.286 12.6276 51.8853 12.4513 51.4805 12.2836C47.8407 10.776 43.9397 10 40 10V12.8125Z" fill="#00AFF4"/>
<path fill-rule="evenodd" clip-rule="evenodd" d="M40 17.1875V15.3125H22.9551C22.1116 15.8949 21.2977 16.5207 20.5169 17.1875H40ZM40 23.4375L40 25C38.9742 25 37.9537 25.1052 36.9542 25.3125H13.8413C14.2001 24.6735 14.582 24.0481 14.9863 23.4375H40ZM26.5117 33.4375C26.8285 32.7864 27.1917 32.1598 27.598 31.5625H11.211C11.0293 32.1824 10.8678 32.8077 10.7266 33.4375H26.5117ZM25.0033 39.6875C25.0011 39.7916 25 39.8958 25 40C25 40.5229 25.0273 41.0444 25.0816 41.5625H10.0407C10.0136 41.0427 10 40.5217 10 40C10 39.8958 10.0005 39.7916 10.0016 39.6875H25.0033ZM28.5478 49.6875C28.049 49.0978 27.5968 48.4709 27.1951 47.8125H11.0351C11.2052 48.4431 11.3959 49.0684 11.6072 49.6875H28.5478ZM40 55.9375H33.3985H14.5835C14.9854 56.5783 15.4113 57.2038 15.8605 57.8125H40V55.9375ZM40 64.0625H22.0836C22.9945 64.7407 23.9433 65.3668 24.9253 65.9375H40V64.0625Z" fill="#00AFF4"/>
</svg>
