<?xml version="1.0" standalone="no"?>
<!DOCTYPE svg PUBLIC "-//W3C//DTD SVG 20010904//EN"
 "http://www.w3.org/TR/2001/REC-SVG-20010904/DTD/svg10.dtd">
<svg version="1.0" xmlns="http://www.w3.org/2000/svg"
 width="1000.000000pt" height="1000.000000pt" viewBox="0 0 1000.000000 1000.000000"
 preserveAspectRatio="xMidYMid meet">
<metadata>
Created by potrace 1.14, written by Peter Selinger 2001-2017
</metadata>
<g transform="translate(0.000000,1000.000000) scale(0.100000,-0.100000)"
fill="#000000" stroke="none">
<path d="M1329 9996 c-2 -2 -29 -7 -59 -10 -195 -23 -442 -117 -619 -236 -112
-75 -209 -163 -315 -285 -143 -164 -265 -428 -313 -675 -17 -91 -18 -246 -18
-3780 0 -2027 4 -3711 8 -3742 11 -81 52 -240 84 -323 103 -272 300 -520 543
-686 96 -65 98 -66 195 -113 134 -65 276 -108 445 -134 62 -10 7392 -9 7460 1
141 20 392 105 498 168 223 133 391 286 509 465 7 11 23 35 36 54 86 131 162
336 197 534 18 97 18 265 17 3791 -1 2030 -5 3701 -9 3715 -4 13 -10 42 -13
63 -9 58 -50 193 -85 283 -156 393 -503 714 -910 842 -108 35 -144 43 -272 61
-59 9 -7370 16 -7379 7z"/>
</g>
</svg>
