<?xml version="1.0" encoding="utf-8"?><svg viewBox="0 0 40 40" xmlns="http://www.w3.org/2000/svg" xmlns:xlink="http://www.w3.org/1999/xlink"><style>:root>svg{display:none}:root>svg:target{display:block}</style><svg viewBox="0 0 30 30" id="close" xmlns="http://www.w3.org/2000/svg"><path fill-rule="evenodd" clip-rule="evenodd" d="M6.952 6.951a1.2 1.2 0 011.697 0L15 13.303l6.352-6.352a1.2 1.2 0 111.697 1.698L16.697 15l6.352 6.352a1.2 1.2 0 11-1.697 1.697L15 16.697 8.65 23.05a1.2 1.2 0 11-1.697-1.697L13.303 15 6.952 8.649a1.2 1.2 0 010-1.698z"/></svg><svg fill="none" viewBox="0 0 25 25" id="menu-close" xmlns="http://www.w3.org/2000/svg"><path d="M3.707 5.121a1 1 0 111.414-1.414l15.557 15.556a1 1 0 01-1.414 1.414L3.707 5.121z" fill="url(#bpaint0_linear_203_25)"/><path d="M5.121 20.678a1 1 0 01-1.414-1.414L19.263 3.706a1 1 0 011.414 1.414L5.121 20.678z" fill="url(#bpaint1_linear_203_25)"/><defs><linearGradient id="bpaint0_linear_203_25" x1="3" y1="4.414" x2="4.47" y2="2.953" gradientUnits="userSpaceOnUse"><stop stop-color="#4ADEDE"/><stop offset=".32" stop-color="#3BCCE2"/><stop offset=".645" stop-color="#2BBBE7"/><stop offset="1" stop-color="#1AA7EC"/></linearGradient><linearGradient id="bpaint1_linear_203_25" x1="4.414" y1="21.385" x2="2.953" y2="19.915" gradientUnits="userSpaceOnUse"><stop stop-color="#4ADEDE"/><stop offset=".32" stop-color="#3BCCE2"/><stop offset=".645" stop-color="#2BBBE7"/><stop offset="1" stop-color="#1AA7EC"/></linearGradient></defs></svg><svg fill="none" viewBox="0 0 25 25" id="menu-open" xmlns="http://www.w3.org/2000/svg"><path d="M.5 5a.5.5 0 010-1h23a.5.5 0 010 1H.5z" fill="url(#cpaint0_linear_203_25)"/><path d="M.5 13a.5.5 0 010-1h23a.5.5 0 010 1H.5z" fill="url(#cpaint1_linear_203_25)"/><path d="M4.5 21a.5.5 0 010-1h19a.5.5 0 010 1h-19z" fill="url(#cpaint2_linear_203_25)"/><defs><linearGradient id="cpaint0_linear_203_25" x1="0" y1="5" x2=".002" y2="3.964" gradientUnits="userSpaceOnUse"><stop stop-color="#4ADEDE"/><stop offset=".32" stop-color="#3BCCE2"/><stop offset=".645" stop-color="#2BBBE7"/><stop offset="1" stop-color="#1AA7EC"/></linearGradient><linearGradient id="cpaint1_linear_203_25" x1="0" y1="13" x2=".002" y2="11.964" gradientUnits="userSpaceOnUse"><stop stop-color="#4ADEDE"/><stop offset=".32" stop-color="#3BCCE2"/><stop offset=".645" stop-color="#2BBBE7"/><stop offset="1" stop-color="#1AA7EC"/></linearGradient><linearGradient id="cpaint2_linear_203_25" x1="4" y1="21" x2="4.002" y2="19.964" gradientUnits="userSpaceOnUse"><stop stop-color="#4ADEDE"/><stop offset=".32" stop-color="#3BCCE2"/><stop offset=".645" stop-color="#2BBBE7"/><stop offset="1" stop-color="#1AA7EC"/></linearGradient></defs></svg><svg viewBox="0 0 24 24" id="plus" xmlns="http://www.w3.org/2000/svg"><path fill-rule="evenodd" clip-rule="evenodd" d="M12 0a1 1 0 00-1 1v10H1a1 1 0 100 2h10v10a1 1 0 102 0V13h10a1 1 0 100-2H13V1a1 1 0 00-1-1z"/></svg><svg fill="none" viewBox="0 0 40 40" id="sc-hh" xmlns="http://www.w3.org/2000/svg"><path fill-rule="evenodd" clip-rule="evenodd" d="M20 40c11.046 0 20-8.954 20-20S31.046 0 20 0 0 8.954 0 20s8.954 20 20 20zm-9.49-29.234H7.057V30h3.453v-9.37c0-.44.14-.803.419-1.091.279-.296.626-.516 1.04-.66.415-.153.83-.229 1.245-.229.364 0 .723.047 1.079.14.355.093.652.267.889.52.237.246.355.61.355 1.092V30h3.453V19.907c0-1.151-.376-2.078-1.13-2.78-.744-.703-1.773-1.054-3.085-1.054-.947 0-1.824.152-2.627.457-.796.296-1.342.681-1.638 1.155v-6.919zm13.84 0h-3.453V30h3.453v-9.37c0-.44.14-.803.419-1.091.279-.296.626-.516 1.04-.66.415-.153.83-.229 1.245-.229.364 0 .723.047 1.079.14.355.093.652.267.889.52.237.246.355.61.355 1.092V30h3.453V19.907c0-1.151-.377-2.078-1.13-2.78-.744-.703-1.773-1.054-3.085-1.054-.948 0-1.824.152-2.628.457-.795.296-1.341.681-1.637 1.155v-6.919z" fill="#D5001C"/></svg><svg fill="none" viewBox="0 0 40 40" id="sc-phone" xmlns="http://www.w3.org/2000/svg"><g clip-path="url(#fclip0_199_24)"><path fill-rule="evenodd" clip-rule="evenodd" d="M31.642 28.242c-.482 1.365-2.398 2.493-3.926 2.823-1.046.222-2.41.398-7.006-1.506-5.162-2.139-12.33-9.757-12.33-14.827 0-2.58 1.488-5.586 4.09-5.586 1.252 0 1.528.025 1.94 1.013.482 1.164 1.658 4.033 1.798 4.327.578 1.207-.588 1.913-1.434 2.963-.27.316-.576.658-.234 1.246.34.576 1.516 2.493 3.244 4.032 2.232 1.988 4.042 2.623 4.69 2.893.482.2 1.058.154 1.41-.223.446-.482 1-1.282 1.564-2.07.398-.564.904-.634 1.434-.434.358.124 4.908 2.237 5.1 2.575.142.246.142 1.41-.34 2.774zM20.004 0h-.01C8.968 0 0 8.97 0 20c0 4.373 1.41 8.43 3.808 11.722l-2.492 7.431 7.686-2.456A19.844 19.844 0 0020.004 40C31.03 40 40 31.03 40 20S31.03 0 20.004 0z" fill="#26D366"/></g><defs><clipPath id="fclip0_199_24"><path fill="#fff" d="M0 0h40v40H0z"/></clipPath></defs></svg><svg fill="none" viewBox="0 0 40 40" id="sc-telegram" xmlns="http://www.w3.org/2000/svg"><g clip-path="url(#gclip0_199_7)"><path fill-rule="evenodd" clip-rule="evenodd" d="M40 20c0 11.046-8.954 20-20 20S0 31.046 0 20 8.954 0 20 0s20 8.954 20 20zm-19.283-5.235c-1.946.809-5.833 2.484-11.664 5.024-.947.376-1.443.745-1.488 1.105-.076.608.686.848 1.724 1.175.141.044.288.09.438.139 1.02.332 2.394.72 3.108.735.648.014 1.371-.253 2.17-.8 5.447-3.678 8.259-5.537 8.436-5.577.124-.028.297-.063.414.04.117.104.105.301.093.354-.076.322-3.068 3.103-4.616 4.543-.483.449-.825.767-.895.84-.157.163-.317.317-.47.465-.95.914-1.66 1.6.039 2.72.817.538 1.47.983 2.122 1.427.712.485 1.422.969 2.341 1.571.234.154.458.313.676.468.828.591 1.573 1.122 2.493 1.037.534-.05 1.086-.552 1.366-2.05.663-3.542 1.965-11.217 2.266-14.38a3.528 3.528 0 00-.033-.787c-.027-.155-.082-.377-.285-.541-.24-.195-.61-.236-.775-.233-.752.013-1.906.415-7.46 2.725z" fill="#2AA9EC"/></g><defs><clipPath id="gclip0_199_7"><path fill="#fff" d="M0 0h40v40H0z"/></clipPath></defs></svg></svg>