<svg width="40" height="40" viewBox="0 0 40 40" fill="none" xmlns="http://www.w3.org/2000/svg">
<g clip-path="url(#clip0_199_7)">
<path fill-rule="evenodd" clip-rule="evenodd" d="M40 20C40 31.0456 31.0456 40 20 40C8.9543 40 0 31.0456 0 20C0 8.9543 8.9543 0 20 0C31.0456 0 40 8.9543 40 20ZM20.7168 14.7649C18.7714 15.574 14.8836 17.2487 9.05316 19.7889C8.10638 20.1654 7.61042 20.5336 7.56528 20.8938C7.48898 21.5024 8.25118 21.7422 9.28912 22.0686C9.4303 22.113 9.57658 22.159 9.72656 22.2076C10.7477 22.5396 12.1214 22.928 12.8355 22.9434C13.4832 22.9574 14.2062 22.6904 15.0044 22.1422C20.452 18.465 23.264 16.6063 23.4406 16.5663C23.565 16.538 23.7376 16.5025 23.8546 16.6064C23.9716 16.7104 23.96 16.9072 23.9476 16.96C23.8722 17.2819 20.8802 20.0634 19.3319 21.503C18.8492 21.9518 18.5068 22.27 18.4368 22.3428C18.28 22.5056 18.1202 22.6596 17.9666 22.8076C17.0179 23.7222 16.3065 24.408 18.006 25.528C18.8227 26.0662 19.4763 26.5112 20.1282 26.9552C20.8402 27.4402 21.5504 27.9238 22.4694 28.5262C22.7034 28.6796 22.927 28.839 23.1448 28.9942C23.9734 29.585 24.718 30.1156 25.6376 30.031C26.172 29.9818 26.7242 29.4794 27.0044 27.9806C27.667 24.4386 28.9694 16.7641 29.2704 13.6016C29.2968 13.3245 29.2636 12.97 29.237 12.8143C29.2102 12.6586 29.1546 12.4368 28.9522 12.2727C28.7126 12.0782 28.3428 12.0372 28.1772 12.0401C27.425 12.0534 26.271 12.4547 20.7168 14.7649Z" fill="#2AA9EC"/>
</g>
<defs>
<clipPath id="clip0_199_7">
<rect width="40" height="40" fill="white"/>
</clipPath>
</defs>
</svg>
