<svg width="40" height="40" viewBox="0 0 40 40" fill="none" xmlns="http://www.w3.org/2000/svg">
<path fill-rule="evenodd" clip-rule="evenodd" d="M20 40C31.0457 40 40 31.0457 40 20C40 8.9543 31.0457 0 20 0C8.9543 0 0 8.9543 0 20C0 31.0457 8.9543 40 20 40ZM10.5098 10.7664H7.05664V29.9998H10.5098V20.6307C10.5098 20.1906 10.6494 19.8267 10.9287 19.5389C11.208 19.2427 11.555 19.0226 11.9697 18.8787C12.3844 18.7264 12.7992 18.6502 13.2139 18.6502C13.5778 18.6502 13.9375 18.6968 14.293 18.7899C14.6484 18.883 14.9447 19.0565 15.1816 19.3104C15.4186 19.5558 15.5371 19.9198 15.5371 20.4022V29.9998H18.9902V19.9071C18.9902 18.756 18.6136 17.8293 17.8604 17.1268C17.1156 16.4243 16.0872 16.0731 14.7754 16.0731C13.8275 16.0731 12.9515 16.2254 12.1475 16.5301C11.3519 16.8263 10.806 17.2114 10.5098 17.6854V10.7664ZM24.3497 10.7664H20.8966V29.9998H24.3497V20.6307C24.3497 20.1906 24.4893 19.8267 24.7686 19.5389C25.0479 19.2427 25.3949 19.0226 25.8096 18.8787C26.2244 18.7264 26.6391 18.6502 27.0538 18.6502C27.4177 18.6502 27.7774 18.6968 28.1329 18.7899C28.4884 18.883 28.7846 19.0565 29.0216 19.3104C29.2585 19.5558 29.377 19.9198 29.377 20.4022V29.9998H32.8302V19.9071C32.8302 18.756 32.4535 17.8293 31.7003 17.1268C30.9555 16.4243 29.9272 16.0731 28.6153 16.0731C27.6674 16.0731 26.7914 16.2254 25.9874 16.5301C25.1918 16.8263 24.6459 17.2114 24.3497 17.6854V10.7664Z" fill="#D5001C"/>
</svg>
